<?xml version="1.0" encoding="utf-8"?>
<!-- Generator: Adobe Illustrator 24.1.1, SVG Export Plug-In . SVG Version: 6.00 Build 0)  -->
<svg version="1.1" id="_x31_0" xmlns="http://www.w3.org/2000/svg" xmlns:xlink="http://www.w3.org/1999/xlink" x="0px" y="0px"
	 viewBox="0 0 512 512" style="enable-background:new 0 0 512 512;" xml:space="preserve">
<style type="text/css">
	.st0{fill:#FFFFFF;}
</style>
<g>
	<path class="st0" d="M470.043,11.344v0.082c-7.115-7.282-16.998-11.388-27.216-11.388c-10.296,0-20.012,4.106-27.217,11.306
		L49.158,377.797l-4.939,4.943l-2.682,2.678l-1.17,1.174l-1.259,3.014l-0.585,1.509v0.164l-25.544,64.65L1.341,485.488
		C0.503,487.754,0,490.183,0,492.608c0,5.025,2.012,9.965,5.696,13.734c3.766,3.684,8.71,5.696,13.734,5.61
		c2.43,0.086,4.772-0.418,7.034-1.255h0.082l29.563-11.642l67.075-26.46l0.503-0.254l1.844-0.585l3.684-3.684l2.429-2.514
		l369.132-369.05C508.23,88.973,512,79.09,512,69.293c0-9.798-3.77-19.762-11.224-27.302L470.043,11.344z M488.885,84.618
		l-21.27,21.271L406.23,44.505l21.271-21.27c0.756-0.753,1.509-1.342,2.347-2.008c0.335-0.254,0.67-0.589,1.006-0.838
		c0.25-0.086,0.499-0.167,0.67-0.335c2.258-1.341,4.686-2.346,7.201-2.85c0.25-0.082,0.503-0.082,0.753-0.082
		c1.174-0.168,2.261-0.335,3.349-0.335c0.67,0,1.341,0.167,2.011,0.167c0.753,0.086,1.505,0.086,2.176,0.25
		c1.006,0.167,1.93,0.503,2.85,0.838c0.417,0.167,0.838,0.254,1.174,0.335c0.499,0.25,1.002,0.585,1.423,0.756
		c2.094,1.088,4.015,2.343,5.691,4.016v0.086L488.885,53.8c4.274,4.355,6.366,9.883,6.366,15.494
		C495.251,74.903,493.158,80.431,488.885,84.618z M24.035,475.442c3.014,0,5.61,1.672,6.951,4.101l-10.885,10.889
		c-2.429-1.341-4.106-3.938-4.106-6.951C15.996,479.044,19.594,475.442,24.035,475.442z M85.333,426.787l3.185,1.256l18.421,7.871
		l7.79,18.425l1.218,2.919l0.033,0.094l-1.337,0.421l-0.168,0.25l-54.011,21.27L49.91,483.48l-21.352-21.352l3.349-8.461
		l22.779-57.613v-0.082l3.1,1.338l18.421,7.871l7.871,18.425L85.333,426.787z M122.489,451.01l-1.983-4.71l-7.2-16.83l-21.525-9.13
		l-9.126-21.52l-17.002-7.286l-3.447-1.44l-1.117-0.527l339.197-339.2l61.469,61.47L214.18,359.409L122.489,451.01z"/>
</g>
</svg>
